<svg id="Layer_7" data-name="Layer 7" xmlns="http://www.w3.org/2000/svg" viewBox="0 0 764.42 764.42"><defs><style>.cls-1{fill:#2f69b2;}</style></defs><title>build</title><path class="cls-1" d="M831.47,469.92C774.37,527,687,537.24,613.27,502.28L243.19,872.35c-26.71,26.71-71.8,24.94-100.7-4s-30.66-74-4-100.7L508.61,397.62c-35-73.77-24.74-161.1,32.36-218.2s144.44-67.32,218.21-32.36L635.52,270.72c-14.59,14.59-17.15,36.95-8.1,55.77a55.87,55.87,0,0,0,10.9,15.32l30.76,30.76a55.87,55.87,0,0,0,15.32,10.9c18.82,9,41.18,6.49,55.77-8.1L863.83,251.71C898.79,325.48,888.57,412.82,831.47,469.92Z" transform="translate(-119.61 -126.87)"/><path class="cls-1" d="M407.75,766.89H409l-.3,0Z" transform="translate(-119.61 -126.87)"/><path class="cls-1" d="M431.3,641l-.74,0-.53,0Z" transform="translate(-119.61 -126.87)"/><path class="cls-1" d="M409,766.89l-.3,0-.92,0Z" transform="translate(-119.61 -126.87)"/><rect class="cls-1" x="469.98" y="484.6" width="116.23" height="116.23" rx="20.62"/><rect class="cls-1" x="618.58" y="483.13" width="116.23" height="116.23" rx="20.62"/><rect class="cls-1" x="469.98" y="622.9" width="116.23" height="116.23" rx="20.62"/><rect class="cls-1" x="618.58" y="621.43" width="116.23" height="116.23" rx="20.62"/></svg>