<svg id="Layer_6" data-name="Layer 6" xmlns="http://www.w3.org/2000/svg" viewBox="0 0 874.7 902"><defs><style>.cls-1{fill:#2f69b2;stroke:#225287;stroke-miterlimit:10;}</style></defs><title>circle_tick</title><path class="cls-1" d="M848,234.82C768.85,155.64,659.64,106.5,539.5,106.5c-240.27,0-436.85,196.58-436.85,436.85v27.3c0,240.27,196.58,436.85,436.85,436.85S976.35,810.92,976.35,570.65v-27.3C976.35,423.22,927.2,314,848,234.82Zm24.69,227.8-377.47,336a73.62,73.62,0,0,1-104.08-6.2L234.75,615.64A73.62,73.62,0,0,1,345,518.06l58.56,66.17a73.63,73.63,0,0,0,104.08,6.2l267.16-237.8a73.62,73.62,0,0,1,97.9,110Z" transform="translate(-102.15 -106)"/></svg>