<?xml version="1.0" encoding="utf-8"?>
<!-- Generator: Adobe Illustrator 24.0.1, SVG Export Plug-In . SVG Version: 6.00 Build 0)  -->
<svg version="1.1" id="Layer_1" xmlns="http://www.w3.org/2000/svg" xmlns:xlink="http://www.w3.org/1999/xlink" x="0px" y="0px"
	 viewBox="0 0 640 512" style="enable-background:new 0 0 640 512;" xml:space="preserve">
<style type="text/css">
	.st0{fill:#414141;}
</style>
<path class="st0" d="M498,274.6c-0.6-6.1-6.8-10-12.6-7.9L354.5,314c-11.1,4-22.8,6-34.5,6s-23.5-2-34.5-6l-130.9-47.3
	c-5.8-2.1-11.9,1.8-12.6,7.9l-14,132.8c0,0.4-0.1,0.8-0.1,1.2c1,35.1,86.6,71.4,192,71.4c30.5,0,59.4-3,85-8.2c5-1,8.3-5.8,7.4-10.8
	c-0.2-1.3-0.4-2.7-0.4-4.1v-88.2c0-18,14.6-32.6,32.6-32.6h38.5c3.2,0,6.3,0.3,9.4,0.9c6.1,1.2,11.7-4,11-10.3L498,274.6z
	 M624.2,137.4L343.7,36.1c-7.6-2.7-15.6-4.1-23.7-4.1s-16.1,1.4-23.7,4.1L15.8,137.4C6.3,140.9,0,149.9,0,160s6.3,19.1,15.8,22.6
	l47.2,17c5.4,2,7.8,8.3,5.1,13.3C55.2,236.7,48,263.7,48,291.9V320c0,28.4-10.8,57.7-22.3,80.8c-6.5,13-13.9,25.8-22.5,37.6
	c-3.2,4.3-4.1,9.9-2.3,15c1.8,5.1,6,8.9,11.2,10.2l64,16c4.2,1.1,8.7,0.3,12.4-2c3.7-2.3,6.3-6.1,7.1-10.4
	c8.6-42.8,4.3-81.2-2.1-108.7c-3.1-13.6-7.1-27.4-12.7-40.2c-0.5-1.2-0.8-2.5-0.8-3.8v-22.6c0-30.2,10.2-58.7,27.9-81.5
	c12.9-15.5,29.6-28,49.2-35.7l157-61.7c8.2-3.2,17.5,0.8,20.7,9s-0.8,17.5-9,20.7l-157,61.7c-7,2.8-13.5,6.3-19.4,10.6
	c-6.1,4.4-4.7,13.9,2.4,16.5l144.5,52.1c7.6,2.7,15.6,4.1,23.7,4.1c8.1,0,16.1-1.4,23.7-4.1l280.6-101c9.5-3.4,15.8-12.5,15.8-22.6
	S633.7,140.9,624.2,137.4z"/>
<path class="st0" d="M603,419.3v8.5c0,5.9-4.8,10.8-10.8,10.8h-43c-5.9,0-10.8,4.8-10.8,10.8v45c0,5.9-4.8,10.8-10.8,10.8h-11.5
	c-5.9,0-10.8-4.8-10.8-10.8v-45c0-5.9-4.8-10.8-10.8-10.8h-41c-5.9,0-10.8-4.8-10.8-10.8v-8.5c0-5.9,4.8-10.8,10.8-10.8h41
	c5.9,0,10.8-4.8,10.8-10.8v-45c0-5.9,4.8-10.8,10.8-10.8h11.5c5.9,0,10.8,4.8,10.8,10.8v45c0,5.9,4.8,10.8,10.8,10.8h43
	C598.2,408.5,603,413.3,603,419.3z"/>
</svg>
