<svg id="Layer_8" data-name="Layer 8" xmlns="http://www.w3.org/2000/svg" viewBox="0 0 928 928"><defs><style>.cls-1{fill:#dc2626;}</style></defs><title>error</title><path class="cls-1" d="M540,76C283.74,76,76,283.74,76,540s207.74,464,464,464,464-207.74,464-464S796.26,76,540,76ZM655.14,562,831.35,714.72a29.08,29.08,0,0,1,2.92,41L795.73,800.2a29.09,29.09,0,0,1-41,2.93L559.55,633.93a29.1,29.1,0,0,0-38.1,0L326.29,803.13a29.09,29.09,0,0,1-41-2.93l-38.54-44.46a29.08,29.08,0,0,1,2.92-41L425.86,562a29.08,29.08,0,0,0,0-43.94L249.65,365.28a29.08,29.08,0,0,1-2.92-41l38.54-44.46a29.09,29.09,0,0,1,41-2.93l195.16,169.2a29.1,29.1,0,0,0,38.1,0l195.16-169.2a29.09,29.09,0,0,1,41,2.93l38.54,44.46a29.08,29.08,0,0,1-2.92,41L655.14,518A29.08,29.08,0,0,0,655.14,562Z" transform="translate(-76 -76)"/></svg>