<svg id="Layer_8" data-name="Layer 8" xmlns="http://www.w3.org/2000/svg" viewBox="0 0 928 928"><defs><style>.cls-1{fill:#2f69b2;}</style></defs><title>info</title><path class="cls-1" d="M540,76C283.74,76,76,283.74,76,540s207.74,464,464,464,464-207.74,464-464S796.26,76,540,76Zm75,706.59A31.41,31.41,0,0,1,583.59,814H496.41A31.41,31.41,0,0,1,465,782.59V391.41A31.41,31.41,0,0,1,496.41,360h87.18A31.41,31.41,0,0,1,615,391.41Zm0-502.11A27.52,27.52,0,0,1,587.48,308h-95A27.52,27.52,0,0,1,465,280.48v-55A27.52,27.52,0,0,1,492.52,198h95A27.52,27.52,0,0,1,615,225.52Z" transform="translate(-76 -76)"/></svg>