<svg id="Layer_7" data-name="Layer 7" xmlns="http://www.w3.org/2000/svg" viewBox="0 0 764.42 766.13"><defs><style>.cls-1{fill:#414141;}</style></defs><title>patch</title><path class="cls-1" d="M831.47,469.92C774.37,527,687,537.24,613.27,502.28L243.19,872.35c-26.71,26.71-71.8,24.94-100.7-4s-30.66-74-4-100.7L508.61,397.62c-35-73.77-24.74-161.1,32.36-218.2s144.44-67.32,218.21-32.36L635.52,270.72c-14.59,14.59-17.15,36.95-8.1,55.77a55.87,55.87,0,0,0,10.9,15.32l30.76,30.76a55.87,55.87,0,0,0,15.32,10.9c18.82,9,41.18,6.49,55.77-8.1L863.83,251.71C898.79,325.48,888.57,412.82,831.47,469.92Z" transform="translate(-119.61 -126.87)"/><path class="cls-1" d="M407.75,766.89H409l-.3,0Z" transform="translate(-119.61 -126.87)"/><path class="cls-1" d="M431.3,641l-.74,0-.53,0Z" transform="translate(-119.61 -126.87)"/><path class="cls-1" d="M409,766.89l-.3,0-.92,0Z" transform="translate(-119.61 -126.87)"/><path class="cls-1" d="M856,729v55a12,12,0,0,1-12,12H758v85a12,12,0,0,1-12,12H691a12,12,0,0,1-12-12V796H595a12,12,0,0,1-12-12V729a12,12,0,0,1,12-12h84V632a12,12,0,0,1,12-12h55a12,12,0,0,1,12,12v85h86A12,12,0,0,1,856,729Z" transform="translate(-119.61 -126.87)"/></svg>