<svg id="Layer_5" data-name="Layer 5" xmlns="http://www.w3.org/2000/svg" viewBox="0 0 859.99 891.67"><defs><style>.cls-1{fill:#d1d1d1;}.cls-2{fill:#225287;opacity:0.25;}.cls-2,.cls-5,.cls-6{stroke:#225287;stroke-miterlimit:10;}.cls-3{fill:#2f69b2;}.cls-4{fill:#a1a1a1;}.cls-5,.cls-6{fill:none;}.cls-5{stroke-width:3px;}.cls-6{stroke-width:0.75px;}.cls-7{font-size:43.45px;fill:#fff;font-family:MyriadPro-Regular, Myriad Pro;}.cls-8{letter-spacing:-0.06em;}.cls-9{letter-spacing:0em;}.cls-10{letter-spacing:0em;}</style></defs><title>primary</title><path class="cls-1" d="M636.16,196.14c-10.92,20.44-23.23,54,8.9,61.08a10.64,10.64,0,0,0,1.87.25c6.83.4,44.69.94,28.52-37.36a12,12,0,0,0-1.45-2.5l-17.28-23A12.22,12.22,0,0,0,636.16,196.14Z" transform="translate(-92.16 -123.33)"/><path class="cls-2" d="M196.09,875.25,96.21,990.58a14.46,14.46,0,0,0,10.93,23.92H867.29a14.45,14.45,0,0,0,13.82-10.23l35.18-115.09a14.47,14.47,0,0,0-13.82-18.69L207,870.25A14.42,14.42,0,0,0,196.09,875.25Z" transform="translate(-92.16 -123.33)"/><path class="cls-3" d="M659.72,136.21H588.49a10.41,10.41,0,0,1-8-3.76c-5.36-6.39-19.43-17.06-45.81.44a10.44,10.44,0,0,0-4.7,8.68V262.18a10.31,10.31,0,0,1-3.16,7.43l-126.67,122a10.28,10.28,0,0,0-1.07,1.21c-3.08,4.09-17.21,25.15,11.81,31.78a10.32,10.32,0,0,1,8,10V488a10.32,10.32,0,0,1-10.32,10.32H214.51a10.32,10.32,0,0,0-10,7.72L152,707.49a10.32,10.32,0,0,0,10,12.93h34.26a10.32,10.32,0,0,1,10.32,10.32V946.68A10.32,10.32,0,0,0,216.85,957H877a10.32,10.32,0,0,0,10.32-10.32V730.74a10.32,10.32,0,0,1,10.32-10.32h44.19a10.32,10.32,0,0,0,10-12.72L903.65,506.07a10.34,10.34,0,0,0-9.82-7.92l-209.56-4.46a10.31,10.31,0,0,1-10.07-9.58l-3.41-47.7a10.3,10.3,0,0,1,9.4-11c19.13-1.62,55.51-8.52,19.21-37.81a7.63,7.63,0,0,1-.73-.66L586,274.26a10.32,10.32,0,0,1,.39-15l32.88-29.59a10.32,10.32,0,0,0,1.08-14.2l-31.3-38.27a10.31,10.31,0,0,1,.69-13.83h0a10.32,10.32,0,0,1,15.13.58l19.69,23a10.26,10.26,0,0,0,5.23,3.27c10.05,2.57,40.25,8,40.25-20.22V146.53A10.32,10.32,0,0,0,659.72,136.21Z" transform="translate(-92.16 -123.33)"/><rect class="cls-4" x="365.44" y="659.85" width="188.3" height="173.81"/><rect class="cls-1" x="490.97" y="659.85" width="62.77" height="173.81"/><rect class="cls-1" x="186.8" y="635.71" width="82.08" height="96.56"/><rect class="cls-1" x="650.3" y="635.71" width="82.08" height="96.56"/><path class="cls-1" d="M381.27,268.77H528.83a10.43,10.43,0,0,1,10.43,10.43V433.36a4.39,4.39,0,0,1-4.39,4.39H375.23a5,5,0,0,1-5-5v-153a11,11,0,0,1,11-11Z"/><path class="cls-5" d="M211.36,715.59h188.3s-4.83-53.11,19.31-48.28" transform="translate(-92.16 -123.33)"/><line class="cls-5" x1="787.91" y1="594.67" x2="585.12" y2="594.67"/><line class="cls-6" x1="585.12" y1="592.26" x2="581.07" y2="305.64"/><line class="cls-6" x1="326.82" y1="307.39" x2="326.82" y2="592.26"/><text class="cls-7" transform="translate(379.58 537.24)"><tspan class="cls-8">T</tspan><tspan class="cls-9" x="18.82" y="0">a</tspan><tspan class="cls-10" x="39.76" y="0">k</tspan><tspan x="60.31" y="0">unda</tspan></text></svg>