<svg id="Layer_8" data-name="Layer 8" xmlns="http://www.w3.org/2000/svg" viewBox="0 0 928 928"><defs><style>.cls-1{fill:#2f69b2;}</style></defs><title>question</title><path class="cls-1" d="M540,76C283.74,76,76,283.74,76,540s207.74,464,464,464,464-207.74,464-464S796.26,76,540,76Zm9.37,786.12q-20.22,18-46.72,18a70.67,70.67,0,0,1-47.84-17.75q-20.44-17.73-20.44-49.63,0-28.31,19.76-47.62t48.52-19.32q28.3,0,47.62,19.32t19.31,47.62Q569.58,844.15,549.37,862.12Zm167.78-416a204.53,204.53,0,0,1-36.84,49.64q-21.33,20.89-76.59,70.3a312.86,312.86,0,0,0-24.48,24.49q-9.21,10.56-13.7,19.31a93.93,93.93,0,0,0-7,17.52q-2.48,8.76-7.42,30.77-8.53,46.74-53.45,46.72-23.37,0-39.31-15.27t-15.95-45.37q0-37.74,11.68-65.36a166,166,0,0,1,31-48.52q19.31-20.88,52.11-49.64,28.74-25.16,41.55-38a128.35,128.35,0,0,0,21.56-28.52,69,69,0,0,0,8.76-34.14q0-35.94-26.73-60.65t-69-24.7q-49.42,0-72.77,24.93t-39.54,73.45q-15.27,50.76-57.94,50.76-25.17,0-42.46-17.75t-17.29-38.4q0-42.67,27.4-86.48t80-72.55Q443.35,200,513.43,200q65.13,0,115,24t77,65.37q27.18,41.33,27.18,89.84Q732.65,417.4,717.15,446.14Z" transform="translate(-76 -76)"/></svg>