<svg id="Layer_4" data-name="Layer 4" xmlns="http://www.w3.org/2000/svg" viewBox="0 0 975 632.31"><defs><style>.cls-1{fill:#225996;}.cls-2{fill:#e3e4e6;}.cls-3{fill:#999;}.cls-4{fill:#2f69b2;}.cls-5{fill:none;stroke:#999;stroke-miterlimit:10;stroke-width:15px;}</style></defs><title>secondary</title><path class="cls-1" d="M64,326.62V795.1a41.6,41.6,0,0,0,42.71,41.59l351.45-9.24A41.15,41.15,0,0,1,489,840c23.38,24.44,81.64,69.38,152.84,7.6a41.73,41.73,0,0,1,26.86-10L998,833a41.61,41.61,0,0,0,41-41.61V322.78a41.54,41.54,0,0,0-23.14-37.3c-56.89-28-216-83-447.37,25.33a41.68,41.68,0,0,1-37.71-1.14C477,280.3,307.85,205.81,91.26,287.55A41.85,41.85,0,0,0,64,326.62Z" transform="translate(-64 -246.43)"/><path class="cls-2" d="M965.74,281.84V730.33a25.89,25.89,0,0,1-30.07,25.58c-69.83-11.44-245.34-30.24-354.77,45.18a25.9,25.9,0,0,1-26.24,2.1c-36.51-18-150-62.17-373.53-53.77a25.94,25.94,0,0,1-27-25.87V284.69a25.87,25.87,0,0,1,24.44-25.87c72.14-4,284.21-9.4,367,56.36a26,26,0,0,0,26.92,3.37c49.82-22.6,213.38-88.66,371.76-62.27A25.86,25.86,0,0,1,965.74,281.84Z" transform="translate(-64 -246.43)"/><path class="cls-3" d="M561.86,786.41a13.23,13.23,0,0,1-14.56.39h0C410.93,696.22,215.86,737.41,170.7,748.7c-5.42,1.35-11.24-.79-13.3-4.87l0-.06c-2.2-4.36.78-9.26,6.56-10.75,47.18-12.11,238.45-53.19,383.44,32.57a13.37,13.37,0,0,0,13.19.06C602,741,734.76,679.83,955.71,741.2c5.61,1.56,8.45,6.38,6.33,10.66h0c-2.09,4.21-8.22,6.31-13.75,4.78C696.74,687,563.22,785.38,561.88,786.4Z" transform="translate(-64 -246.43)"/><polygon class="cls-4" points="250.56 41.25 152.51 41.25 152.51 155.64 217.88 112.06 250.56 155.64 250.56 41.25"/><line class="cls-5" x1="822.49" y1="117.51" x2="588.27" y2="117.51"/><line class="cls-5" x1="590.99" y1="185.6" x2="825.21" y2="185.6"/><line class="cls-5" x1="825.21" y1="245.51" x2="590.99" y2="245.51"/><line class="cls-5" x1="827.93" y1="321.77" x2="593.72" y2="321.77"/><line class="cls-5" x1="400.35" y1="321.77" x2="155.24" y2="321.77"/><line class="cls-5" x1="400.35" y1="245.51" x2="155.24" y2="245.51"/><line class="cls-5" x1="400.35" y1="185.6" x2="155.24" y2="185.6"/><line class="cls-5" x1="400.35" y1="120.23" x2="280.52" y2="120.23"/><line class="cls-5" x1="495.69" y1="74.42" x2="495.5" y2="526.57"/></svg>