<svg id="Layer_8" data-name="Layer 8" xmlns="http://www.w3.org/2000/svg" viewBox="0 0 928 928"><defs><style>.cls-1{fill:#57954f;}</style></defs><title>success</title><path class="cls-1" d="M540,76C283.74,76,76,283.74,76,540s207.74,464,464,464,464-207.74,464-464S796.26,76,540,76ZM870,446.26,462.54,808.44A43,43,0,0,1,402.8,806l-215-225.66a43,43,0,0,1,1.47-60.83L215,495l25.69-24.47A43,43,0,0,1,301.52,472l3.53,3.7L411.86,587.85a43,43,0,0,0,59.74,2.48l222.73-198,71.36-63.43a43,43,0,0,1,60.74,3.58l47.14,53A43,43,0,0,1,870,446.26Z" transform="translate(-76 -76)"/></svg>