<svg id="Layer_2" data-name="Layer 2" xmlns="http://www.w3.org/2000/svg" viewBox="0 0 985.89 817"><defs><style>.cls-1,.cls-2{fill:#2f69b2;}.cls-1{opacity:0.22;}.cls-3{fill:#225996;}</style></defs><title>tertiary</title><ellipse class="cls-1" cx="433.52" cy="652.5" rx="433.52" ry="164.5"/><polygon class="cls-2" points="457.73 0 985.89 218.93 520.03 435.08 0 218.93 457.73 0"/><path class="cls-2" d="M251.59,550.49,554.94,678,825,550.49l.77,282.66L614.53,944s-287.1-44.34-362.94-149.65Z" transform="translate(-62 -193)"/><path class="cls-2" d="M915.64,524.71c7.12,8.29,3.06,27.69,3.41,39.3L923,693.54c.17,5.45.31,11-1.34,16.23a24.17,24.17,0,0,1-20.93,16.51c-9.33.59-18.74-5-22.95-13.55-3.45-7-3.5-15.14-3.48-23L874.58,560c0-5.6,0-11.29,1.5-16.69,3.51-12.91,16.71-22.53,29.72-22.59C910.36,520.74,913.5,522.23,915.64,524.71Z" transform="translate(-62 -193)"/><path class="cls-2" d="M904.65,736.36c6.14,1.45,14.14,5.88,24.07,24.74,12.3,23.36,15,45.1,16.25,55.42,6.19,53.52,9.28,80.28,0,88.68-21.52,19.47-79.55.88-91-31.31-2.48-6.94-3-15-1-24.11,5.84-26.92,7.3-55.06,15.61-81.39,4.63-14.69,7.47-23.39,15.82-28.58C885.29,739.19,894.14,733.87,904.65,736.36Z" transform="translate(-62 -193)"/><path class="cls-3" d="M156.31,366.82s252.23,171.3,498.78,227.36L582,628.08,62,411.93Z" transform="translate(-62 -193)"/><polygon class="cls-3" points="492.94 484.96 189.59 601.35 189.59 357.49 492.94 484.96"/></svg>