<svg id="Layer_6" data-name="Layer 6" xmlns="http://www.w3.org/2000/svg" viewBox="0 0 801 801"><defs><style>.cls-1{fill:#2f69b2;stroke:#225287;stroke-miterlimit:10;}</style></defs><title>tick</title><path class="cls-1" d="M721.41,157H357.59C237.64,157,139.5,255.14,139.5,375.09V738.91c0,120,98.14,218.09,218.09,218.09H721.41c120,0,218.09-98.14,218.09-218.09V375.09C939.5,255.14,841.36,157,721.41,157ZM872.72,462.62l-377.47,336a73.62,73.62,0,0,1-104.08-6.2L234.75,615.64A73.62,73.62,0,0,1,345,518.06l58.56,66.17a73.63,73.63,0,0,0,104.08,6.2l267.16-237.8a73.62,73.62,0,0,1,97.9,110Z" transform="translate(-139 -156.5)"/></svg>