<?xml version="1.0" encoding="utf-8"?>
<!-- Generator: Adobe Illustrator 24.0.1, SVG Export Plug-In . SVG Version: 6.00 Build 0)  -->
<svg version="1.1" id="Layer_1" xmlns="http://www.w3.org/2000/svg" xmlns:xlink="http://www.w3.org/1999/xlink" x="0px" y="0px"
	 viewBox="0 0 384 512" style="enable-background:new 0 0 384 512;" xml:space="preserve">
<style type="text/css">
	.st0{fill:#414141;}
</style>
<path class="st0" d="M336,0H48C21.5,0,0,21.5,0,48V464c0,26.5,21.5,48,48,48H144c0,0,0,0,0,0v-79.1c0-26.9,21.7-49.1,48.5-48.9
	c5.8,0.1,11.4,1.2,16.5,3.1c7.2,2.7,15-2.4,15-10.2v-31.4c0-10.2,8.3-18.5,18.5-18.5h91c27.9,0,50.5-22.6,50.5-50.5V48
	C384,21.5,362.5,0,336,0z M128,272c0,8.8-7.2,16-16,16H80c-8.8,0-16-7.2-16-16V240c0-8.8,7.2-16,16-16H112c8.8,0,16,7.2,16,16V272z
	 M128,144c0,8.8-7.2,16-16,16H80c-8.8,0-16-7.2-16-16V112c0-8.8,7.2-16,16-16H112c8.8,0,16,7.2,16,16V144z M224,272
	c0,8.8-7.2,16-16,16H176c-8.8,0-16-7.2-16-16V240c0-8.8,7.2-16,16-16H208c8.8,0,16,7.2,16,16V272z M224,144c0,8.8-7.2,16-16,16H176
	c-8.8,0-16-7.2-16-16V112c0-8.8,7.2-16,16-16H208c8.8,0,16,7.2,16,16V144z M320,272c0,8.8-7.2,16-16,16H272c-8.8,0-16-7.2-16-16V240
	c0-8.8,7.2-16,16-16H304c8.8,0,16,7.2,16,16V272z M320,144c0,8.8-7.2,16-16,16H272c-8.8,0-16-7.2-16-16V112c0-8.8,7.2-16,16-16H304
	c8.8,0,16,7.2,16,16V144z"/>
<path class="st0" d="M384,419.9v9.2c0,6.4-5.2,11.7-11.7,11.7h-46.7c-6.4,0-11.7,5.2-11.7,11.7v48.9c0,6.4-5.2,11.7-11.7,11.7h-12.5
	c-6.4,0-11.7-5.2-11.7-11.7v-48.9c0-6.4-5.2-11.7-11.7-11.7h-44.5c-6.4,0-11.7-5.2-11.7-11.7v-9.2c0-6.4,5.2-11.7,11.7-11.7h44.5
	c6.4,0,11.7-5.2,11.7-11.7v-48.9c0-6.4,5.2-11.7,11.7-11.7h12.5c6.4,0,11.7,5.2,11.7,11.7v48.9c0,6.4,5.2,11.7,11.7,11.7h46.7
	C378.8,408.2,384,413.4,384,419.9z"/>
</svg>
