<svg id="Layer_8" data-name="Layer 8" xmlns="http://www.w3.org/2000/svg" viewBox="0 0 928 928"><defs><style>.cls-1{fill:#f88f10;}</style></defs><title>warning</title><path class="cls-1" d="M540,76C283.74,76,76,283.74,76,540s207.74,464,464,464,464-207.74,464-464S796.26,76,540,76Zm75,710.48A27.52,27.52,0,0,1,587.48,814h-95A27.52,27.52,0,0,1,465,786.48v-55A27.52,27.52,0,0,1,492.52,704h95A27.52,27.52,0,0,1,615,731.52Zm0-165.89A31.41,31.41,0,0,1,583.59,652H496.41A31.41,31.41,0,0,1,465,620.59V229.41A31.41,31.41,0,0,1,496.41,198h87.18A31.41,31.41,0,0,1,615,229.41Z" transform="translate(-76 -76)"/></svg>